<?xml version="1.0" standalone="no"?>
<!DOCTYPE svg PUBLIC "-//W3C//DTD SVG 20010904//EN"
 "http://www.w3.org/TR/2001/REC-SVG-20010904/DTD/svg10.dtd">
<svg version="1.0" xmlns="http://www.w3.org/2000/svg"
 width="824.000000pt" height="824.000000pt" viewBox="0 0 824.000000 824.000000"
 preserveAspectRatio="xMidYMid meet">
<metadata>
Created by potrace 1.11, written by Peter Selinger 2001-2013
</metadata>
<g transform="translate(0.000000,824.000000) scale(0.100000,-0.100000)"
fill="#000000" stroke="none">
<path d="M484 8193 c7 -50 12 -106 96 -1028 28 -302 66 -719 85 -925 19 -206
57 -620 85 -920 27 -300 79 -862 115 -1250 35 -388 74 -806 85 -930 33 -360
147 -1605 181 -1965 17 -181 32 -331 33 -333 2 -1 392 -113 867 -248 475 -135
1134 -322 1464 -416 330 -94 611 -171 625 -171 14 0 295 77 625 171 330 94
989 281 1464 416 475 135 865 247 867 248 1 2 16 152 33 333 34 360 148 1605
181 1965 11 124 50 542 85 930 36 388 88 950 115 1250 28 300 66 714 85 920
19 206 57 623 85 925 84 922 89 978 96 1028 l6 47 -3642 0 -3642 0 6 -47z
m4275 -1573 c165 -120 172 -126 167 -155 -3 -23 -1078 -3614 -1217 -4067 l-30
-97 -184 132 c-101 73 -184 138 -185 145 0 12 184 627 1027 3429 161 536 229
750 238 745 6 -4 89 -63 184 -132z m1529 -1675 l332 -330 0 -271 0 -270 -586
-579 c-322 -318 -589 -574 -593 -569 -5 5 -55 122 -111 259 l-103 250 114 107
c63 60 279 262 481 450 201 189 367 348 367 354 1 8 -732 679 -927 850 l-35
30 108 278 109 277 255 -253 c141 -139 406 -401 589 -583z m-3377 569 c69
-174 99 -261 93 -270 -5 -7 -216 -205 -469 -440 -253 -234 -468 -434 -478
-443 -16 -16 8 -40 468 -460 353 -322 484 -449 480 -460 -3 -9 -51 -132 -107
-274 l-102 -258 -290 288 c-160 159 -425 421 -588 583 l-298 295 0 266 0 267
587 581 c324 320 591 581 594 581 4 0 53 -115 110 -256z"/>
</g>
</svg>
