<svg xmlns="http://www.w3.org/2000/svg" width="24" height="24" viewBox="0 0 24 24"><path d="M16.4 14C16.4 13.3 16.5 12.7 16.5 12 16.5 11.3 16.4 10.7 16.4 10H19.7C19.9 10.6 20 11.3 20 12 20 12.7 19.9 13.4 19.7 14M14.6 19.6C15.2 18.5 15.7 17.3 16 16H18.9C18 17.7 16.4 18.9 14.6 19.6M14.3 14H9.7C9.6 13.3 9.5 12.7 9.5 12 9.5 11.3 9.6 10.7 9.7 10H14.3C14.4 10.7 14.5 11.3 14.5 12 14.5 12.7 14.4 13.3 14.3 14M12 20C11.2 18.8 10.5 17.4 10.1 16H13.9C13.5 17.4 12.8 18.8 12 20M8 8H5.1C6 6.3 7.6 5.1 9.4 4.4 8.8 5.6 8.4 6.8 8 8M5.1 16H8C8.4 17.3 8.8 18.5 9.4 19.6 7.6 18.9 6 17.7 5.1 16M4.3 14C4.1 13.4 4 12.7 4 12 4 11.3 4.1 10.6 4.3 10H7.6C7.6 10.7 7.5 11.3 7.5 12 7.5 12.7 7.6 13.3 7.6 14M12 4C12.8 5.2 13.5 6.6 13.9 8H10.1C10.5 6.6 11.2 5.2 12 4M18.9 8H16C15.7 6.8 15.2 5.6 14.6 4.4 16.4 5.1 18 6.3 18.9 8M12 2C6.5 2 2 6.5 2 12A10 10 0 0 0 12 22 10 10 0 0 0 22 12 10 10 0 0 0 12 2Z" fill="#00796b"/></svg>