<svg id="logo" xmlns="http://www.w3.org/2000/svg" viewBox="0 0 736.9 206"><defs><style>.cls-1{fill:#004d40;}.cls-2{fill:#FF5722;}.cls-3{fill:#009688;}.cls-4{fill:#fff;opacity:0.08;}.cls-5{fill:#eae1df;}</style></defs><title>logo</title><g id="texto"><path class="cls-1" d="M253.05,86.92q-1.9-4.63-3.57-8.4t-3.21-7.06q-1.54-3.29-3-6.22t-3.07-5.89V86.92H236V52.37h4.69l4,7.31q1.7,3.13,3.13,6.06t2.76,6q1.34,3.1,3,7.17V52.37h4.19V86.92h-4.69Z" transform="translate(-16.93 -19.21)"/><path class="cls-1" d="M284.2,86.19q-1.51.39-4,.84a33.39,33.39,0,0,1-5.83.45,12.16,12.16,0,0,1-4.91-.87,8,8,0,0,1-3.18-2.46,9.61,9.61,0,0,1-1.73-3.77,21.35,21.35,0,0,1-.5-4.8V61h4.58V74.58q0,4.8,1.42,6.81t4.77,2q0.73,0,1.48-.06t1.42-.14l1.17-.17a5.28,5.28,0,0,0,.67-0.14V61h4.63V86.19Zm-4.58-35-7,6.81-2.34-2.06,6.36-7.7Z" transform="translate(-16.93 -19.21)"/><path class="cls-1" d="M290.33,74a15.17,15.17,0,0,1,1.12-6.08,11.54,11.54,0,0,1,3.07-4.24,12.72,12.72,0,0,1,4.55-2.48,18.57,18.57,0,0,1,5.55-.81,28.27,28.27,0,0,1,3.77.25,23.85,23.85,0,0,1,4,.92l-1.06,4a15.87,15.87,0,0,0-3.38-.87,24.59,24.59,0,0,0-3.1-.2,13.29,13.29,0,0,0-3.8.53,8.19,8.19,0,0,0-3.1,1.67,8.11,8.11,0,0,0-2.09,3,12.64,12.64,0,0,0-.06,8.59,7.64,7.64,0,0,0,2,2.9,8.44,8.44,0,0,0,3.15,1.7,14,14,0,0,0,4.07.56,29,29,0,0,0,3.43-.2,17.57,17.57,0,0,0,3.6-.87l0.67,3.85a20.09,20.09,0,0,1-4,1,29,29,0,0,1-4.35.31,18,18,0,0,1-5.72-.86,12.54,12.54,0,0,1-4.46-2.54,11.22,11.22,0,0,1-2.9-4.21A15.53,15.53,0,0,1,290.33,74Z" transform="translate(-16.93 -19.21)"/><path class="cls-1" d="M333.81,87.53a10.72,10.72,0,0,1-4.07-.67,5.77,5.77,0,0,1-2.57-2,8.51,8.51,0,0,1-1.34-3.32,24,24,0,0,1-.39-4.6V52.42H318V48.52H330V76.93a16.43,16.43,0,0,0,.25,3.18,5.24,5.24,0,0,0,.78,2,2.7,2.7,0,0,0,1.31,1,5.46,5.46,0,0,0,1.84.28,11.13,11.13,0,0,0,3-.39,9.83,9.83,0,0,0,2.18-.84l0.67,3.91q-0.34.17-.95,0.42a12,12,0,0,1-1.45.47q-0.84.22-1.81,0.39A12,12,0,0,1,333.81,87.53Z" transform="translate(-16.93 -19.21)"/><path class="cls-1" d="M356.75,60.41q5.25,0,8.09,3.27t2.85,9.91V75.2H349.16a8.56,8.56,0,0,0,2.65,6.11,9.75,9.75,0,0,0,6.67,2.09,19.28,19.28,0,0,0,4.19-.39,12.06,12.06,0,0,0,2.62-.84l0.61,3.91a13.73,13.73,0,0,1-3,.95,21.93,21.93,0,0,1-4.91.5,15.55,15.55,0,0,1-5.89-1,11.72,11.72,0,0,1-4.21-2.82,11.55,11.55,0,0,1-2.51-4.27,16.77,16.77,0,0,1-.84-5.39,15.72,15.72,0,0,1,1.06-6,12.38,12.38,0,0,1,2.79-4.24,11.52,11.52,0,0,1,3.91-2.51A12.34,12.34,0,0,1,356.75,60.41ZM363,71.46a7.52,7.52,0,0,0-1.73-5.22,5.85,5.85,0,0,0-4.58-1.93,6.83,6.83,0,0,0-2.93.61,7.38,7.38,0,0,0-2.26,1.62A7.85,7.85,0,0,0,350,68.83a9.47,9.47,0,0,0-.73,2.62H363Z" transform="translate(-16.93 -19.21)"/><path class="cls-1" d="M395.31,74a16.79,16.79,0,0,1-.87,5.55A12.8,12.8,0,0,1,392,83.79a10.75,10.75,0,0,1-3.74,2.76,11.47,11.47,0,0,1-4.74,1,11.14,11.14,0,0,1-4.66-1,10.81,10.81,0,0,1-3.71-2.76,12.77,12.77,0,0,1-2.43-4.27,16.79,16.79,0,0,1-.87-5.55,17,17,0,0,1,.87-5.58,12.42,12.42,0,0,1,2.43-4.27,11,11,0,0,1,3.71-2.73,11.13,11.13,0,0,1,4.66-1,11.46,11.46,0,0,1,4.74,1A10.93,10.93,0,0,1,392,64.12a12.46,12.46,0,0,1,2.43,4.27A17,17,0,0,1,395.31,74Zm-4.74,0a11.37,11.37,0,0,0-1.9-6.95,6.07,6.07,0,0,0-5.13-2.54A6,6,0,0,0,378.49,67,11.49,11.49,0,0,0,376.62,74a11.38,11.38,0,0,0,1.87,6.89,6,6,0,0,0,5.05,2.54,6.07,6.07,0,0,0,5.13-2.54A11.27,11.27,0,0,0,390.57,74Z" transform="translate(-16.93 -19.21)"/><path class="cls-1" d="M438.82,58.49l3.47-.59V86.37q-1.13.34-2.89,0.67a22.17,22.17,0,0,1-4.1.33,9.85,9.85,0,0,1-3.81-.71,8.18,8.18,0,0,1-2.93-2,9.21,9.21,0,0,1-1.88-3.2,12.56,12.56,0,0,1-.67-4.23,14.16,14.16,0,0,1,.56-4.12,9.3,9.3,0,0,1,1.65-3.2A7.56,7.56,0,0,1,434.34,67a8.91,8.91,0,0,1,2.72.38,6.57,6.57,0,0,1,1.76.8V58.49Zm0,13.1a6.56,6.56,0,0,0-4.06-1.51,4.82,4.82,0,0,0-2.37.54,4.56,4.56,0,0,0-1.61,1.49,6.6,6.6,0,0,0-.92,2.26,13,13,0,0,0-.29,2.83,7.76,7.76,0,0,0,1.59,5.23,5.21,5.21,0,0,0,4.14,1.84,16.21,16.21,0,0,0,2.2-.13,9.69,9.69,0,0,0,1.32-.25V71.6Z" transform="translate(-16.93 -19.21)"/><path class="cls-1" d="M455.69,67a7.62,7.62,0,0,1,6.07,2.45q2.13,2.45,2.13,7.43v1.21H450a6.42,6.42,0,0,0,2,4.58,7.31,7.31,0,0,0,5,1.57,14.44,14.44,0,0,0,3.14-.29,9,9,0,0,0,2-.63l0.46,2.93a10.29,10.29,0,0,1-2.26.71,16.41,16.41,0,0,1-3.68.38,11.67,11.67,0,0,1-4.42-.77A8.8,8.8,0,0,1,449,84.49a8.66,8.66,0,0,1-1.88-3.2,12.58,12.58,0,0,1-.63-4,11.79,11.79,0,0,1,.79-4.52,9.28,9.28,0,0,1,2.09-3.18,8.64,8.64,0,0,1,2.93-1.88A9.26,9.26,0,0,1,455.69,67Zm4.69,8.29a5.64,5.64,0,0,0-1.3-3.91A4.39,4.39,0,0,0,455.65,70a5.12,5.12,0,0,0-2.2.46,5.55,5.55,0,0,0-1.7,1.21,5.9,5.9,0,0,0-1.13,1.72,7.13,7.13,0,0,0-.54,2h10.3Z" transform="translate(-16.93 -19.21)"/><path class="cls-1" d="M497.78,86.92V52.37h19.37v3.91H502.36v10.6h12.95v3.91H502.36V83h16v3.91H497.78Z" transform="translate(-16.93 -19.21)"/><path class="cls-1" d="M539.64,80.44a2.78,2.78,0,0,0-1.14-2.29,11.4,11.4,0,0,0-2.85-1.56q-1.7-.67-3.71-1.31a20.16,20.16,0,0,1-3.71-1.59,9.77,9.77,0,0,1-2.85-2.34,5.53,5.53,0,0,1-1.14-3.63,6.49,6.49,0,0,1,2.54-5.22q2.54-2.09,8-2.09a32.65,32.65,0,0,1,4.38.31,24.33,24.33,0,0,1,3.88.81l-0.84,4.13a9.18,9.18,0,0,0-1.23-.47,15.66,15.66,0,0,0-1.79-.45q-1-.2-2.15-0.31t-2.2-.11q-6,0-6,3.29a2.37,2.37,0,0,0,1.14,2,13.29,13.29,0,0,0,2.87,1.48q1.73,0.67,3.74,1.37a21.47,21.47,0,0,1,3.74,1.7,10.24,10.24,0,0,1,2.88,2.43,5.57,5.57,0,0,1,1.14,3.6,6.27,6.27,0,0,1-2.73,5.44q-2.73,1.93-8.65,1.93a25.12,25.12,0,0,1-4.91-.45,20.12,20.12,0,0,1-4.24-1.34l0.89-4.19a26.79,26.79,0,0,0,4.1,1.48,17.43,17.43,0,0,0,4.6.59Q539.64,83.62,539.64,80.44Z" transform="translate(-16.93 -19.21)"/><path class="cls-1" d="M561,61H571.9v3.85H561V76.93a14.77,14.77,0,0,0,.28,3.18,4.56,4.56,0,0,0,.92,2,3.25,3.25,0,0,0,1.65,1,9.28,9.28,0,0,0,2.46.28,11.07,11.07,0,0,0,5.58-1.23l0.67,3.91q-0.78.34-2.48,0.89a13.69,13.69,0,0,1-4.21.56,14.11,14.11,0,0,1-4.74-.67,6.19,6.19,0,0,1-2.87-2,7.81,7.81,0,0,1-1.42-3.32,24,24,0,0,1-.39-4.6V64.87h-5.47V61h5.47V53.76L561,53v8Z" transform="translate(-16.93 -19.21)"/><path class="cls-1" d="M598.69,86.19q-1.51.39-4,.84a33.39,33.39,0,0,1-5.83.45,12.16,12.16,0,0,1-4.91-.87,8.05,8.05,0,0,1-3.18-2.46A9.6,9.6,0,0,1,579,80.39a21.35,21.35,0,0,1-.5-4.8V61h4.58V74.58q0,4.8,1.42,6.81t4.77,2q0.73,0,1.48-.06t1.42-.14l1.17-.17a5.26,5.26,0,0,0,.67-0.14V61h4.63V86.19Z" transform="translate(-16.93 -19.21)"/><path class="cls-1" d="M621.4,49l4.63-.78v38q-1.51.45-3.85,0.89a29.56,29.56,0,0,1-5.47.45,13.14,13.14,0,0,1-5.08-.95,10.92,10.92,0,0,1-3.91-2.71,12.29,12.29,0,0,1-2.51-4.27,16.76,16.76,0,0,1-.89-5.64,18.86,18.86,0,0,1,.75-5.5,12.38,12.38,0,0,1,2.2-4.27,10.08,10.08,0,0,1,8.15-3.8,11.87,11.87,0,0,1,3.63.5A8.8,8.8,0,0,1,621.4,62V49Zm0,17.47a8.76,8.76,0,0,0-5.41-2,6.43,6.43,0,0,0-3.15.73,6.1,6.1,0,0,0-2.15,2,8.83,8.83,0,0,0-1.23,3,17.32,17.32,0,0,0-.39,3.77q0,4.52,2.12,7a7,7,0,0,0,5.53,2.46,21.66,21.66,0,0,0,2.93-.17,12.86,12.86,0,0,0,1.76-.33V66.49Z" transform="translate(-16.93 -19.21)"/><path class="cls-1" d="M655.11,74a16.79,16.79,0,0,1-.87,5.55,12.8,12.8,0,0,1-2.43,4.27,10.75,10.75,0,0,1-3.74,2.76,11.47,11.47,0,0,1-4.74,1,11.14,11.14,0,0,1-4.66-1A10.81,10.81,0,0,1,635,83.79a12.77,12.77,0,0,1-2.43-4.27,16.79,16.79,0,0,1-.87-5.55,17,17,0,0,1,.87-5.58A12.42,12.42,0,0,1,635,64.12a11,11,0,0,1,3.71-2.73,11.13,11.13,0,0,1,4.66-1,11.46,11.46,0,0,1,4.74,1,10.93,10.93,0,0,1,3.74,2.73,12.46,12.46,0,0,1,2.43,4.27A17,17,0,0,1,655.11,74Zm-4.74,0a11.37,11.37,0,0,0-1.9-6.95,6.07,6.07,0,0,0-5.13-2.54A6,6,0,0,0,638.29,67,11.49,11.49,0,0,0,636.42,74a11.38,11.38,0,0,0,1.87,6.89,6,6,0,0,0,5.05,2.54,6.07,6.07,0,0,0,5.13-2.54A11.27,11.27,0,0,0,650.37,74Z" transform="translate(-16.93 -19.21)"/><path class="cls-1" d="M676.38,80.44a2.78,2.78,0,0,0-1.14-2.29,11.4,11.4,0,0,0-2.85-1.56q-1.7-.67-3.71-1.31A20.16,20.16,0,0,1,665,73.69a9.77,9.77,0,0,1-2.85-2.34A5.53,5.53,0,0,1,661,67.72a6.49,6.49,0,0,1,2.54-5.22q2.54-2.09,8-2.09a32.65,32.65,0,0,1,4.38.31,24.33,24.33,0,0,1,3.88.81l-0.84,4.13a9.18,9.18,0,0,0-1.23-.47,15.66,15.66,0,0,0-1.79-.45q-1-.2-2.15-0.31t-2.2-.11q-6,0-6,3.29a2.37,2.37,0,0,0,1.14,2,13.29,13.29,0,0,0,2.87,1.48q1.73,0.67,3.74,1.37a21.47,21.47,0,0,1,3.74,1.7,10.24,10.24,0,0,1,2.88,2.43,5.57,5.57,0,0,1,1.14,3.6,6.27,6.27,0,0,1-2.73,5.44q-2.73,1.93-8.65,1.93a25.12,25.12,0,0,1-4.91-.45,20.12,20.12,0,0,1-4.24-1.34l0.89-4.19a26.79,26.79,0,0,0,4.1,1.48,17.43,17.43,0,0,0,4.6.59Q676.38,83.62,676.38,80.44Z" transform="translate(-16.93 -19.21)"/><path class="cls-1" d="M722.32,67a7.62,7.62,0,0,1,6.07,2.45q2.13,2.45,2.13,7.43v1.21h-13.9a6.42,6.42,0,0,0,2,4.58,7.31,7.31,0,0,0,5,1.57,14.44,14.44,0,0,0,3.14-.29,9,9,0,0,0,2-.63l0.46,2.93a10.29,10.29,0,0,1-2.26.71,16.41,16.41,0,0,1-3.68.38,11.67,11.67,0,0,1-4.42-.77,8.8,8.8,0,0,1-3.16-2.11,8.66,8.66,0,0,1-1.88-3.2,12.58,12.58,0,0,1-.63-4,11.79,11.79,0,0,1,.79-4.52A9.28,9.28,0,0,1,716,69.55,8.64,8.64,0,0,1,719,67.66,9.26,9.26,0,0,1,722.32,67ZM727,75.32a5.64,5.64,0,0,0-1.3-3.91A4.39,4.39,0,0,0,722.28,70a5.12,5.12,0,0,0-2.2.46,5.55,5.55,0,0,0-1.7,1.21,5.9,5.9,0,0,0-1.13,1.72,7.13,7.13,0,0,0-.54,2H727Z" transform="translate(-16.93 -19.21)"/><path class="cls-1" d="M733.71,68a13.25,13.25,0,0,1,4.73-1,7.18,7.18,0,0,1,2.28.36,4.57,4.57,0,0,1,1.82,1.11,6,6,0,0,1,3.85-1.47,4.88,4.88,0,0,1,1.9.38,4.51,4.51,0,0,1,1.59,1.13A5.67,5.67,0,0,1,751,70.47a7.6,7.6,0,0,1,.42,2.64V86.92h-3.14V73a3.49,3.49,0,0,0-.67-2.3,2.1,2.1,0,0,0-1.67-.8,2.49,2.49,0,0,0-1,.25,2.94,2.94,0,0,0-1,.8,8.48,8.48,0,0,1,.25,2.13v6.32H741V73.06a4.82,4.82,0,0,0-.46-2.3,1.87,1.87,0,0,0-1.8-.84,5.63,5.63,0,0,0-1.88.38V86.92h-3.14V68Z" transform="translate(-16.93 -19.21)"/><path class="cls-2" d="M231.17,184.59V111.17h44.95v12.1H245.76v17.79h26.57v12.1H245.76v31.43H231.17Z" transform="translate(-16.93 -19.21)"/><path class="cls-2" d="M335.42,143.67Q334,143.31,332,143t-4-.65q-2-.29-3.91-0.42t-3.2-.12q-3.09,0-6,.3a37.8,37.8,0,0,0-6,1.13v41.39H294.14V132.52a87.72,87.72,0,0,1,11.92-3.44,69.11,69.11,0,0,1,14.29-1.3q1.18,0,3.38.12t4.68,0.42q2.49,0.3,5,.71a26.76,26.76,0,0,1,4.57,1.13Z" transform="translate(-16.93 -19.21)"/><path class="cls-2" d="M399.46,156.6a36.14,36.14,0,0,1-1.9,12,28,28,0,0,1-5.34,9.31,23.63,23.63,0,0,1-8.24,6,28,28,0,0,1-21.47,0,24.18,24.18,0,0,1-8.3-6,27.41,27.41,0,0,1-5.4-9.31,36.09,36.09,0,0,1-1.9-12,34.75,34.75,0,0,1,2-11.92,27.57,27.57,0,0,1,5.46-9.25,23.74,23.74,0,0,1,8.36-5.93,28,28,0,0,1,21.17,0,23.9,23.9,0,0,1,8.3,5.93,26.85,26.85,0,0,1,5.4,9.25A35.77,35.77,0,0,1,399.46,156.6Zm-37.71.12q0,7.47,2.67,12.1t8.6,4.63a9.51,9.51,0,0,0,8.6-4.62q2.9-4.63,2.91-12.1t-2.67-12q-2.67-4.56-8.6-4.57a9.54,9.54,0,0,0-8.6,4.57Q361.74,149.24,361.74,156.72Z" transform="translate(-16.93 -19.21)"/><path class="cls-2" d="M410.85,130.62a98.65,98.65,0,0,1,9.67-2,77.1,77.1,0,0,1,12.51-.95,28.71,28.71,0,0,1,11,1.84,16.42,16.42,0,0,1,6.94,5.22,20.93,20.93,0,0,1,3.62,8.06,46.76,46.76,0,0,1,1.07,10.38v31.43H441.09V155.05q0-7.83-1.78-11.27t-7.23-3.44q-1.66,0-3.26.12t-3.38.36v43.76H410.85v-54Z" transform="translate(-16.93 -19.21)"/><path class="cls-2" d="M480.22,140.94H467.53v-12.1h12.69v-14l14.59-2.37v16.37h23.36v12.1H494.81v22.53a17.1,17.1,0,0,0,.59,5,7.11,7.11,0,0,0,1.66,3,5.29,5.29,0,0,0,2.61,1.42,15.31,15.31,0,0,0,3.44.36q2,0,3.74-.12a29,29,0,0,0,3.32-.42,22.84,22.84,0,0,0,3.32-.89,37.53,37.53,0,0,0,3.74-1.54l2,12.57a37.63,37.63,0,0,1-8.72,2.37,60.42,60.42,0,0,1-9.07.71,43.87,43.87,0,0,1-9-.83,14.49,14.49,0,0,1-6.64-3.2,14.71,14.71,0,0,1-4.15-6.7,37.11,37.11,0,0,1-1.42-11.33V140.94Z" transform="translate(-16.93 -19.21)"/><path class="cls-2" d="M536.56,147h32.5v14.35h-32.5V147Z" transform="translate(-16.93 -19.21)"/><path class="cls-2" d="M590.52,184.59V111.17H635v12.1H605.11v16.49h26v12.1h-26v20.64h32.5v12.1H590.52Z" transform="translate(-16.93 -19.21)"/><path class="cls-2" d="M650.41,130.62a98.65,98.65,0,0,1,9.67-2,77.1,77.1,0,0,1,12.51-.95,28.71,28.71,0,0,1,11,1.84,16.42,16.42,0,0,1,6.94,5.22,20.93,20.93,0,0,1,3.62,8.06,46.76,46.76,0,0,1,1.07,10.38v31.43H680.65V155.05q0-7.83-1.78-11.27t-7.23-3.44q-1.66,0-3.26.12t-3.38.36v43.76H650.41v-54Z" transform="translate(-16.93 -19.21)"/><path class="cls-2" d="M753.83,182.92a59.87,59.87,0,0,1-9.84,2.13,80.72,80.72,0,0,1-11.38.83q-13,0-19.75-7.71t-6.7-21.11q0-13.64,5.63-21.53t16.66-7.89a26,26,0,0,1,5.81.65,19,19,0,0,1,5,1.84V104.77l14.59-2.49v80.65ZM721,156.36q0,7.47,2.79,12.22t9,4.74q1.78,0,3.32-.12t3.2-.36V142.48a18.64,18.64,0,0,0-3.79-1.6,15.38,15.38,0,0,0-4.51-.65,8.09,8.09,0,0,0-7.59,4.15Q721,148.53,721,156.36Z" transform="translate(-16.93 -19.21)"/></g><g id="icone"><polygon id="escudo" class="cls-3" points="165 185 91 206 17 185 0 0 182 0 165 185"/><polygon id="brilho" class="cls-4" points="154.65 173.53 91 192.53 91 13.47 169.47 15.47 154.65 173.53"/><g id="tag"><path class="cls-5" d="M45.56,123.42V109.86L75,80.7l5.25,13.2L55.92,116.58l24.32,22.2-5.4,13.68Z" transform="translate(-16.93 -19.21)"/><path class="cls-5" d="M96.9,167.7l-9.38-6.84L119,56.22l9.31,6.84Z" transform="translate(-16.93 -19.21)"/><path class="cls-5" d="M170.31,109.74v13.68l-29.27,29-5.4-13.08,24.32-22.8L135.63,94.5,141,80.7Z" transform="translate(-16.93 -19.21)"/></g></g></svg>
